<svg xmlns="http://www.w3.org/2000/svg" xmlns:xlink="http://www.w3.org/1999/xlink" viewBox="0 0 14.33 15.17"><path d="M4.62,5.72v-3A2.41,2.41,0,0,1,7.17.5,2.4,2.4,0,0,1,9.71,2.74v3m-7.51,9h9.94a1.59,1.59,0,0,0,1.69-1.6l-.61-7.46a1.61,1.61,0,0,0-1.69-1.38H2.8A1.61,1.61,0,0,0,1.11,5.61L.5,13.07A1.59,1.59,0,0,0,2.2,14.67Z" fill="none" stroke="currentColor" stroke-linecap="round"/><polyline points="3.9 9.85 5.95 11.89 11.17 6.66" fill="none" stroke="currentColor" stroke-linecap="round" stroke-linejoin="round"/></svg>