<svg xmlns="http://www.w3.org/2000/svg" xmlns:xlink="http://www.w3.org/1999/xlink" viewBox="0 0 14.33 15.17"><path d="M12.14,15.17H2.2a2.27,2.27,0,0,1-1.69-.72A1.81,1.81,0,0,1,0,13l.6-7.46A2.14,2.14,0,0,1,2.8,3.73H4.12v-1A2.91,2.91,0,0,1,7.17,0a2.9,2.9,0,0,1,3,2.74v1h1.32a2.13,2.13,0,0,1,2.19,1.84L14.33,13a1.86,1.86,0,0,1-.51,1.42,2.25,2.25,0,0,1-1.68.72M2.8,4.73a1.12,1.12,0,0,0-1.19.92L1,13.11a.85.85,0,0,0,.25.66,1.26,1.26,0,0,0,1,.4h9.94a1.3,1.3,0,0,0,.95-.4.88.88,0,0,0,.24-.66l-.61-7.46a1.12,1.12,0,0,0-1.19-.92H10.21v1a.5.5,0,0,1-.5.5.5.5,0,0,1-.5-.5v-1H5.12v1a.5.5,0,0,1-1,0v-1Zm2.32-1H9.21v-1A1.91,1.91,0,0,0,7.17,1a1.92,1.92,0,0,0-2,1.74Z" fill="currentColor"/></svg>