<svg xmlns="http://www.w3.org/2000/svg" xmlns:xlink="http://www.w3.org/1999/xlink" viewBox="0 0 16 15"><path d="M14,2a1,1,0,0,1,1,1V13a1,1,0,0,1-1,1H2a1,1,0,0,1-1-1V3A1,1,0,0,1,2,2H14m0-1H2A2,2,0,0,0,0,3V13a2,2,0,0,0,2,2H14a2,2,0,0,0,2-2V3a2,2,0,0,0-2-2" fill="currentColor"/><path d="M3.5,0A.5.5,0,0,0,3,.5v2a.5.5,0,0,0,1,0V.5A.5.5,0,0,0,3.5,0" fill="currentColor"/><path d="M12.5,6h-9a.5.5,0,0,0,0,1h9a.5.5,0,0,0,0-1" fill="currentColor"/><path d="M12.5,10h-9a.5.5,0,0,0,0,1h9a.5.5,0,0,0,0-1" fill="currentColor"/><path d="M12.5,0a.5.5,0,0,0-.5.5v2a.5.5,0,0,0,1,0V.5a.5.5,0,0,0-.5-.5" fill="currentColor"/></svg>