<svg xmlns="http://www.w3.org/2000/svg" xmlns:xlink="http://www.w3.org/1999/xlink" viewBox="0 0 23 19.24"><path d="M20.09,1.57C17.28-.58,13.37.69,11.51,3.82h0C9.63.69,5.72-.58,2.91,1.57a5.85,5.85,0,0,0-1,8.58c1.79,2.19,7.21,6.8,9,8.29a1.2,1.2,0,0,0,.42.29h.32a1.2,1.2,0,0,0,.42-.29c1.77-1.49,7.19-6.1,9-8.29A5.85,5.85,0,0,0,20.09,1.57Z" fill="none" stroke="currentColor" stroke-miterlimit="10"/><polyline points="9.46 9.36 11.51 11.4 16.73 6.18" fill="none" stroke="currentColor" stroke-linecap="round" stroke-linejoin="round"/></svg>