<svg xmlns="http://www.w3.org/2000/svg" xmlns:xlink="http://www.w3.org/1999/xlink" viewBox="0 0 14.58 15.44"><path d="M12.82,5a.76.76,0,0,1,.76.76v7.88a.76.76,0,0,1-.76.76H1.76A.76.76,0,0,1,1,13.68V5.8A.76.76,0,0,1,1.76,5H12.82m0-1H1.76A1.76,1.76,0,0,0,0,5.8v7.88a1.76,1.76,0,0,0,1.76,1.76H12.82a1.76,1.76,0,0,0,1.76-1.76V5.8A1.76,1.76,0,0,0,12.82,4" fill="currentColor"/><path d="M5.27,1A1.52,1.52,0,0,1,6.79,2.52V4h-2a1.52,1.52,0,0,1,0-3h.52m0-1H4.75a2.52,2.52,0,0,0,0,5h3V2.52A2.52,2.52,0,0,0,5.27,0" fill="currentColor"/><path d="M9.83,1a1.52,1.52,0,0,1,0,3h-2V2.52A1.52,1.52,0,0,1,9.31,1h.52m0-1H9.31A2.52,2.52,0,0,0,6.79,2.52V5h3a2.52,2.52,0,0,0,0-5" fill="currentColor"/><line x1="5.79" y1="4.8" x2="5.79" y2="14.92" fill="none" stroke="currentColor" stroke-linecap="round"/><line x1="8.79" y1="4.8" x2="8.79" y2="14.92" fill="none" stroke="currentColor" stroke-linecap="round"/></svg>