<svg xmlns="http://www.w3.org/2000/svg" xmlns:xlink="http://www.w3.org/1999/xlink" viewBox="0 0 29 17"><path d="M8.5,13a.49.49,0,0,1-.5-.49v-8a.5.5,0,0,1,1,0v8a.49.49,0,0,1-.5.49" fill="currentColor"/><path d="M12.54,9H4.46a.49.49,0,0,1,0-1h8.08a.49.49,0,0,1,0,1" fill="currentColor"/><path d="M8.5,1A7.5,7.5,0,1,1,1,8.5,7.5,7.5,0,0,1,8.5,1m0-1A8.5,8.5,0,1,0,17,8.5,8.51,8.51,0,0,0,8.5,0" fill="currentColor"/><path d="M14.5,0a8.45,8.45,0,0,0-3.34.68,4.59,4.59,0,0,1,1.05.68A7.5,7.5,0,1,1,14.5,16a7.64,7.64,0,0,1-2.4-.4,4.2,4.2,0,0,1-1.09.65A8.5,8.5,0,1,0,14.5,0" fill="currentColor"/><path d="M20.5,0a8.55,8.55,0,0,0-3.4.71l.09,0a4.31,4.31,0,0,1,1,.62A7.42,7.42,0,0,1,20.5,1a7.5,7.5,0,0,1,0,15,7.42,7.42,0,0,1-2.32-.37.08.08,0,0,0,0,0,4.84,4.84,0,0,1-1,.62A8.5,8.5,0,1,0,20.5,0" fill="currentColor"/></svg>