<svg xmlns="http://www.w3.org/2000/svg" xmlns:xlink="http://www.w3.org/1999/xlink" viewBox="0 0 21.45 20.52"><path d="M11.75.64l2.43,4.92a1.17,1.17,0,0,0,.86.63L20.48,7a1.14,1.14,0,0,1,.63,1.94l-3.94,3.84a1.14,1.14,0,0,0-.32,1l.93,5.41a1.14,1.14,0,0,1-1.66,1.2l-4.86-2.55a1.11,1.11,0,0,0-1.06,0L5.33,20.38a1.14,1.14,0,0,1-1.65-1.2l.93-5.41a1.15,1.15,0,0,0-.33-1L.35,8.92A1.13,1.13,0,0,1,1,7l5.44-.79a1.13,1.13,0,0,0,.85-.63L9.71.64a1.13,1.13,0,0,1,2,0" fill-rule="evenodd" fill="currentColor"/></svg>