<svg xmlns="http://www.w3.org/2000/svg" xmlns:xlink="http://www.w3.org/1999/xlink" viewBox="0 0 18 18"><path d="M9,1A8,8,0,1,1,1,9,8,8,0,0,1,9,1M9,0a9,9,0,1,0,9,9A9,9,0,0,0,9,0" fill="currentColor"/><path d="M8.25,10.93v0A5.18,5.18,0,0,1,8.32,10a3.59,3.59,0,0,1,.16-.63,1.81,1.81,0,0,1,.29-.48,3.05,3.05,0,0,1,.36-.36c.13-.09.28-.2.47-.31a2,2,0,0,0,.64-.61,1.57,1.57,0,0,0,.24-.86,1.26,1.26,0,0,0-.41-1,1.49,1.49,0,0,0-1-.37,1.7,1.7,0,0,0-.51.08,1.39,1.39,0,0,0-.45.24,1.24,1.24,0,0,0-.35.45,1.63,1.63,0,0,0-.15.64H6.49a2.38,2.38,0,0,1,.38-1.23,2.26,2.26,0,0,1,.91-.8A2.83,2.83,0,0,1,9,4.54a2.52,2.52,0,0,1,1.8.65,2.19,2.19,0,0,1,.68,1.65,2.29,2.29,0,0,1-1.2,2.06,2.39,2.39,0,0,0-.6.49,1.69,1.69,0,0,0-.32.61,3.46,3.46,0,0,0-.12.88v0Zm1.09,2.3a.74.74,0,0,1-.54.23.78.78,0,0,1-.55-.23.77.77,0,0,1,0-1.08.78.78,0,0,1,.55-.23.74.74,0,0,1,.54.23.77.77,0,0,1,0,1.08" fill="currentColor"/></svg>