<svg xmlns="http://www.w3.org/2000/svg" xmlns:xlink="http://www.w3.org/1999/xlink" viewBox="0 0 1078.3 155.34"><defs><clipPath id="a"><rect width="1078.3" height="155.34" fill="none"/></clipPath></defs><rect x="110.9" y="8.25" width="25.61" height="130.58"/><rect x="166.35" width="25.61" height="130.58"/><rect y="24.76" width="25.61" height="130.58"/><rect x="55.45" y="16.51" width="25.61" height="130.58"/><polygon points="870.89 70.26 829.63 24.55 805.5 24.55 805.5 130.37 830.68 130.37 830.68 62.86 868.35 102.86 873.01 102.86 910.05 62.86 910.05 130.37 935.23 130.37 935.23 24.55 911.1 24.55 870.89 70.26"/><polygon points="1055.23 24.55 992.8 93.33 992.8 24.55 967.61 24.55 967.61 130.37 990.68 130.37 1053.11 61.59 1053.11 130.37 1078.3 130.37 1078.3 24.55 1055.23 24.55"/><g clip-path="url(#a)"><path d="M669.84,63.28c0,16.84,9.19,30.11,23.44,35.67l-26.61,31.42h30.89l24.21-28.57h26.16v28.57h25.19V24.55H709c-23.92,0-39.16,16.3-39.16,38.73m78.09-15.45V79.15H713.65c-11.43,0-17.57-6.35-17.57-15.66,0-9.52,6.35-15.66,17.57-15.66Z"/><path d="M552.81,45.71c-1.49,36.4-9.32,59.9-24.34,59.9h-3.81V131l4,.21c30.26,1.7,47-24.76,49.73-82.53H618.2v81.69h25.19V24.55H553.65Z"/><path d="M458,23.07c-34.07,0-58.62,23.49-58.62,54.39,0,32,26.67,54.6,58.62,54.6,33.23,0,59-23.91,59-54.6,0-30.46-25.78-54.39-59-54.39m0,83.59c-19.26,0-32.38-12.48-32.38-29.2,0-17.14,13.12-29.21,32.38-29.21,19,0,32.8,12.75,32.8,29.21s-13.8,29.2-32.8,29.2"/><path d="M372.7,24.76H283.82L283,45.92c-1.27,30.48-9.31,59.47-24.34,59.9l-7,.21v49.31H277v-25h88.3v25h25.6V105.82H372.7Zm-25.18,81.06H293.76c9.1-13.76,14-33.65,14.82-56.93h38.94Z"/></g></svg>