<svg xmlns="http://www.w3.org/2000/svg" xmlns:xlink="http://www.w3.org/1999/xlink" viewBox="0 0 124.86 30.75"><defs><clipPath id="a" transform="translate(0 0)"><rect width="124.86" height="30.75" fill="none"/></clipPath></defs><g clip-path="url(#a)"><path d="M0,30.43V7.71H8.51A11.55,11.55,0,0,1,15,9.31a5.33,5.33,0,0,1,2.4,4.74,5.72,5.72,0,0,1-.71,2.81,5.19,5.19,0,0,1-1.95,2A5.41,5.41,0,0,1,17,20.8a5.06,5.06,0,0,1,.87,3,5.92,5.92,0,0,1-1.06,3.48,6.75,6.75,0,0,1-3,2.34,11.69,11.69,0,0,1-4.64.83ZM8.61,12H5.12v4.89H8.29a5.57,5.57,0,0,0,2.94-.6,2.12,2.12,0,0,0,1-1.92,2,2,0,0,0-.86-1.76A4.76,4.76,0,0,0,8.61,12M5.12,26.18h4a4.75,4.75,0,0,0,2.59-.61,2.23,2.23,0,0,0,1-2,2.09,2.09,0,0,0-.83-1.85,4.86,4.86,0,0,0-2.72-.58h-4Zm32.11-14H26.8v4.52h9.76v4.51H26.8v4.67H37.55l-.32,4.51H21.68V7.71H37.23ZM64.91,7.71h5V30.43H65.3L55.22,16.32V30.43h-5V7.71h4.64L64.91,21.82Zm10.59,0h5.22V30.43H75.5Zm.48-2L79.89,0l5,1.25L80.27,5.66ZM106.32,26a9.47,9.47,0,0,1-3.88,3.56A12.17,12.17,0,0,1,97,30.75a13.75,13.75,0,0,1-6.3-1.34,9.56,9.56,0,0,1-4-3.84,12.46,12.46,0,0,1-1.38-6.05,12.64,12.64,0,0,1,1.54-6.34,11,11,0,0,1,4.25-4.25,12.75,12.75,0,0,1,6.34-1.54,11.14,11.14,0,0,1,5.28,1.15A9.65,9.65,0,0,1,106.35,12l-4,2.85a4.75,4.75,0,0,0-2.11-2.14,6.36,6.36,0,0,0-2.88-.68,6.54,6.54,0,0,0-3.52.93,6.39,6.39,0,0,0-2.37,2.59,8.41,8.41,0,0,0-.83,3.84,6.87,6.87,0,0,0,1.66,4.93A6.14,6.14,0,0,0,97,26.11a6.37,6.37,0,0,0,3.08-.77,5.87,5.87,0,0,0,2.36-2.4Zm18.23-13.76H114.11v4.52h9.76v4.51h-9.76v4.67h10.76l-.32,4.51H109V7.71h15.56Z" transform="translate(0 0)" fill="#fff"/></g></svg>